/* XPM */
static char *_3488_743fdb3b21d3ba859c7e173a6601037cda4573027f1d4d6969d41250f64bd6c6_3[] = {
/* columns rows colors chars-per-pixel */
"64 64 163 2 ",
"   c #3131373752D3",
".  c #331439F4557C",
"X  c #36833D805A98",
"o  c #39793EE95D1D",
"O  c #4141368C5701",
"+  c #40EB37375858",
"@  c #42C33CDD5DFE",
"#  c #41413F3F6060",
"$  c #48483F3F6262",
"%  c #397440545EB7",
"&  c #3C9443A162DF",
"*  c #404040405F5F",
"=  c #425744DA648F",
"-  c #494942426424",
";  c #41C2488865E6",
":  c #49494E4E6767",
">  c #4D4D43436868",
",  c #442D4B576A76",
"<  c #48484F4F6E6E",
"1  c #525247476D6D",
"2  c #51FC4AA06D17",
"3  c #474750506F6F",
"4  c #4A7550FB6E43",
"5  c #525257576E6E",
"6  c #47474F4F7070",
"7  c #4C7453B6724A",
"8  c #4F4F59597979",
"9  c #51515588740D",
"0  c #5C0651A77575",
"q  c #529B5959762D",
"w  c #5B5B5BDC7676",
"e  c #54715C957B98",
"r  c #58985F5F7C3C",
"t  c #636354547C7C",
"y  c #636359597D7D",
"u  c #5CB262627D52",
"i  c #64E569EA7DFE",
"p  c #51515C5C8080",
"a  c #69EA5BDC8505",
"s  c #62B85EB4923C",
"d  c #55F661218525",
"f  c #5B5B648F8484",
"g  c #5F5F68688585",
"h  c #5B5B663388BB",
"j  c #5E8968BE8AB5",
"k  c #62626610822C",
"l  c #6B6B63638787",
"z  c #64FE6B3885B8",
"x  c #6BEC69EA8707",
"c  c #6A6A64648C0C",
"v  c #630D6CA58D70",
"b  c #69296F2F89C9",
"n  c #727264648F8F",
"m  c #6B6B70708484",
"M  c #6DAD73B38C0C",
"N  c #707075758B8B",
"B  c #78787C7C8E8E",
"V  c #664F62EE9465",
"C  c #6A3B667D9696",
"Z  c #66666F6F9090",
"A  c #6D256AFB95A5",
"S  c #6D2F6A419A56",
"D  c #75F667679212",
"F  c #76766C6C9090",
"G  c #79796A6A9797",
"H  c #718E6E939CB2",
"J  c #7B5B6D0D9AFA",
"K  c #666670C690E6",
"L  c #6BDD748293A1",
"P  c #72F375F69616",
"I  c #731D7A0F95D5",
"U  c #7540722E9E3D",
"Y  c #7BE274F59ED1",
"T  c #752C7C6A9A88",
"R  c #7A7A7D4A9C02",
"E  c #76A673F4A110",
"W  c #7A6D76B1A20A",
"Q  c #74AF7CA4A2A2",
"!  c #7D677A25A3F1",
"~  c #82A27555A262",
"^  c #81967E03A64F",
"/  c #88887CD2A54F",
"(  c #81C17EE9A8FE",
")  c #8A8A7E7EA8A8",
"_  c #7D7D80809797",
"`  c #7C6D830A9DF8",
"'  c #7C138461A58E",
"]  c #7E7E852FA8A8",
"[  c #7EFF8A0AA929",
"{  c #858587479F5F",
"}  c #82FD8282A636",
"|  c #8A8A8202A727",
" . c #85BC8A65A3AC",
".. c #8AA98CE9A4F4",
"X. c #84F2836CAA31",
"o. c #8A1785CCABF2",
"O. c #83F28C54ABE3",
"+. c #8CDF8B28AE78",
"@. c #90908585ADAD",
"#. c #90D08BCBAF6F",
"$. c #8E8E9191A7A7",
"%. c #86ED91F8AD7A",
"&. c #8B1A92BBAD8E",
"*. c #92E19595AC3F",
"=. c #94EA9943AFAF",
"-. c #99199999AFAF",
";. c #8E388E38B15B",
":. c #91BC8E4EB171",
">. c #8D74949CB1CA",
",. c #8EFC9999B269",
"<. c #954593F3B41E",
"1. c #993696BEB5A1",
"2. c #94769B8EB52C",
"3. c #9B019BBAB54E",
"4. c #97979B9BB8B8",
"5. c #9D169CCFB9A6",
"6. c #A1219F1FBB9B",
"7. c #964DA10EB691",
"8. c #9B76A27DB691",
"9. c #9CB1A446BAAD",
"0. c #9E7EA989BBFB",
"q. c #A161A464B737",
"w. c #A3B6A536BCB0",
"e. c #A8A8A727BF3F",
"r. c #A48AAB8DBD3E",
"t. c #A9C6AD44BDC3",
"y. c #A5A5B131BFBF",
"u. c #AC16B2D6BDE1",
"i. c #A626A626C0C0",
"p. c #A8FEA751C116",
"a. c #A63FAC05C0CD",
"s. c #AB33AD04C296",
"d. c #B0B0AFAFC3C3",
"f. c #A761B1E0C11D",
"g. c #AC5DB3C7C40D",
"h. c #AED3B94BC57C",
"j. c #B255B538C596",
"k. c #B4ECBAF2C687",
"l. c #B9B9BDE2C7A2",
"z. c #B489B636C973",
"x. c #B8B8B7B7C9C9",
"c. c #B5D7BCABC9DA",
"v. c #BA97BEAEC9B9",
"b. c #BFBFBFBFD0D0",
"n. c #B777C201CACA",
"m. c #BCCAC2A7CBE6",
"M. c #BF69C91ECF79",
"N. c #BFBFC0C0D0D0",
"B. c #C127C45DCF68",
"V. c #C47BC646D2C0",
"C. c #C8C8C7C7D4D4",
"Z. c #C5D9CCCCD370",
"A. c #CA16CBCBD5BB",
"S. c #CDCDCFCFD8D8",
"D. c #CD0CD292D7D7",
"F. c #CF0ED353D959",
"G. c #D328D4FFDB85",
"H. c #D6D6D8D8DDDD",
"J. c #D9D9DBDBDFDF",
"K. c #DEDEDDDDE262",
"L. c #E0E0DFDFE2E2",
"P. c #E2E2E1E1E4E4",
"I. c None",
/* pixels */
"I.I.I.I.I.I.I.I.I.I.I.I.I.I.I.I.I.I.I.I.I.I.I.I.I.I.I.I.I.I.I.I.I.I.I.I.I.I.I.I.I.I.I.I.I.I.I.I.I.I.I.I.I.I.I.I.I.I.I.I.I.I.I.I.",
"I.I.I.I.I.I.I.I.I.I.I.I.I.I.I.I.I.I.I.I.I.I.I.I.I.I.I.I.I.I.e.6.e.p.I.I.I.I.I.I.I.I.I.I.I.I.I.I.I.I.I.I.I.I.I.I.I.I.I.I.I.I.I.I.",
"I.I.I.I.I.I.I.I.I.I.I.I.I.I.I.I.I.I.I.I.I.I.I.I.I.I.I.I.q.-.$...w.p.p.e.I.I.I.I.I.I.I.I.I.I.I.I.I.I.I.I.I.I.I.I.I.I.I.I.I.I.I.I.",
"I.I.I.I.I.I.I.I.I.I.I.I.I.I.I.I.I.I.I.I.I.I.I.I.I.I.q.-...{ .. .e.t.d.p.p.e.I.I.I.I.I.I.I.I.I.I.I.I.I.I.I.I.I.I.I.I.I.I.I.I.I.I.",
"I.I.I.I.I.I.I.I.I.I.I.I.I.I.I.I.I.I.I.I.I.I.I.I.e.-...{ ..{  ...6.e.e.e.s.p.6.<.I.I.I.I.I.I.I.I.I.I.I.I.I.I.I.I.I.I.I.I.I.I.I.I.",
"I.I.I.I.I.I.I.I.I.I.I.I.I.I.I.I.I.I.I.I.I.I.t.-.{ { { { { $. ...6.5.6.6.6.e.5.J ^ <.I.I.I.I.I.I.I.I.I.I.I.I.I.I.I.I.I.I.I.I.I.I.",
"I.I.I.I.I.I.I.I.I.I.I.I.I.I.I.I.I.I.I.I.I.e.$.{ { { ....$...{ | 3.*.1.1.1.6.5.H s H o.I.I.I.I.I.I.I.I.I.I.I.I.I.I.I.I.I.I.I.I.I.",
"I.I.I.I.I.I.I.I.I.I.I.I.I.I.I.I.I.I.I.u.e.q.{ { { ..{ $...$.{ ..1.@.#.:.:.:.1.W s s C ^ :.I.I.I.I.I.I.I.I.I.I.I.I.I.I.I.I.I.I.I.",
"I.I.I.I.I.I.I.I.I.I.I.I.I.I.I.I.I.I.u.e.q.e.$.{ ............' $.1.o.o.o.+.+.#.^ V V V V H o.I.I.I.I.I.I.I.I.I.I.I.I.I.I.I.I.I.I.",
"I.I.I.I.I.I.I.I.I.I.I.I.I.I.I.I.I.u.e.e.e.q.-.{ ........$...` *.<.^ ^ X.o.X.o.^ V V V V C S ) I.I.I.I.I.I.I.I.I.I.I.I.I.I.I.I.I.",
"I.I.I.I.I.I.I.I.I.I.I.I.I.I.I.j.t.q.q.q.q.q.q.........$.$...` 2.<.! ! ^ } X.X.X.C V V C C C C ~ @.I.I.I.I.I.I.I.I.I.I.I.I.I.I.I.",
"I.I.I.I.I.I.I.I.I.I.I.I.I.I.j.e.q.q.t.t.q.u.q.$.......$.*. .` 3.<.E W ! ! ! ! ! S C C C C C S H ~ o.I.I.I.I.I.I.I.I.I.I.I.I.I.I.",
"I.I.I.I.I.I.I.I.I.I.I.I.I.j.k.t.q.e.e.q.t.t.e.*...$.$.*.$. .' 8.<.U W W W W W ! U C S A S S A H H W ) I.I.I.I.I.I.I.I.I.I.I.I.I.",
"I.I.I.I.I.I.I.I.I.I.I.I.j.k.B.l.t.t.q.t.q.q.t.-.*...$.*.&. . .8.<.H U U U E W W U S S S S S S H H H ~ / I.I.I.I.I.I.I.I.I.I.I.I.",
"I.I.I.I.I.I.I.I.I.I.I.x.u.m.m.l.u.u.q.t.t.t.t.q.$.*.*.*.$.}  .s.e.H H H U U U W U S H S H H H H H U U W ~ I.I.I.I.I.I.I.I.I.I.I.",
"I.I.I.I.I.I.I.I.I.I.x.u.B.m.m.m.u.t.t.t.q.t.t.t.*.*.*.*...O.0.C.C.1.U H U U U U E S H H H H U U E W W W ~ ~ I.I.I.I.I.I.I.I.I.I.",
"I.I.I.I.I.I.I.I.I.I.j.l.m.l.B.m.m.u.t.t.t.e.t.t.3.*.*.=.=.j.N.g.s.b.s.! H H E E U U H U U U E E W W W ! ! ~ I.I.I.I.I.I.I.I.I.I.",
"I.I.I.I.I.I.I.I.I.j.l.l.l.m.l.l.B.B.u.u.t.t.t.t.8.<.-.t.V.v.a.i.w.i.d.z.#.E H E E E U E E E W W ! ! ! ! ^ ^ ~ I.I.I.I.I.I.I.I.I.",
"I.I.I.I.I.I.I.I.j.k.v.l.l.B.l.B.u.m.l.u.t.t.t.t.i.4.z.M.z.a.i.i.w.4.5.0.z.1.E E W E E W W W ! ! ! ! ^ ^ ^ } ^ ~ I.I.I.I.I.I.I.I.",
"I.I.I.I.I.I.I.j.k.v.l.l.l.l.l.l.B.l.l.u.t.t.t.t.g.b.N.z.a.a.w.0.9.4.2.<.4.s.6.! W W ! ! ! ! ^ ! X.^ ( X.X.X.o./ J I.I.I.I.I.I.I.",
"I.I.I.I.I.I.I.j.l.l.v.v.l.l.u.n.l.m.l.l.u.u.u.x.M.N.z.a.a.i.0.9.9.4.2.,.>.>.a.6.( ! ! ! ^ ! ( ^ ^ X.X.X.X.o.o.+./ I.I.I.I.I.I.I.",
"I.I.I.I.I.I.j.l.l.l.l.v.m.m.B.l.l.l.m.m.u.u.x.C.N.g.a.a.i.0.9.9.7.4.4.,.>.%.O.9.w.X.( X.( X.X.X.X.o.o.o.o.+.+.+.+.~ I.I.I.I.I.I.",
"I.I.I.I.I.j.j.l.l.l.l.l.u.B.l.l.l.m.l.l.l.x.C.x.g.a.a.a.0.0.9.7.7.2.,.,.>.%.O.O.4.5.o.X.X.X.X.o.o.o.+.+.+.#.+.+.;.o.G I.I.I.I.I.",
"I.I.I.I.I.u.u.j.u.l.l.B.u.m.n.l.l.l.l.l.B.C.b.d.f.a.a.0.0.0.0.0.0.7.7.2.>.>.%.O.] >.5.o.o.o.o.o.o.+.+.+.+.+.+.#.;.:./ I.I.I.I.I.",
"I.I.I.I.u.u.u.u.u.u.u.u.m.l.l.l.l.l.l.m.A.b.g.g.a.a.0.0.0.0.0.0.0.9.7.7.,.,.,.[ [ ' %.5.;.o.@.;.#.+.+.o.o.#.:.:.:.<.:.J I.I.I.I.",
"I.I.I.I.r.u.r.u.u.u.u.u.u.l.l.l.l.l.m.C.b.g.a.a.0.a.a.a.y.y.y.y.a.0.0.7.7.,.,.%.[ [ ' >.6.;.:.+.o.+.#.#.:.:.:.:.<.1.1./ I.I.I.I.",
"I.I.I.s.r.r.t.u.u.u.u.u.u.u.u.u.u.x.C.B.g.a.a.a.a.a.y.f.y.f.f.f.y.y.y.0.7.7.,.,.%.[ [ ' 4.5.;.+.:.+.:.:.:.<.:.1.1.1.5.1.J I.I.I.",
"I.I.I.t.r.r.t.r.u.u.u.u.u.u.u.u.u.l.C.d.f.a.0.a.a.f.f.f.f.h.h.h.f.f.y.y.0.7.7.,.,.%.[ [ ' 5.4.:.:.<.<.:.1.1.1.1.1.6.6.6.| I.I.I.",
"I.I.e.r.r.r.r.r.r.u.u.u.u.u.u.u.l.C.j.a.a.a.a.a.y.y.f.h.h.h.n.h.h.h.h.f.f.0.0.7.,.,.[ [ ' ] i.4.<.1.1.1.1.1.6.6.6.6.6.w.6.F I.I.",
"I.I.r.r.r.r.r.r.r.r.r.u.t.r.u.u.B.l.a.a.i.0.0.a.y.f.h.h.h.n.n.n.n.n.n.n.h.f.y.7.,.,.%.[ ' Q O.i.5.5.5.5.6.6.6.6.6.e.p.e.e./ I.I.",
"I.s.w.0.r.r.r.r.r.u.u.r.t.u.t.l.b.s.e.a.0.0.a.a.f.f.h.h.n.n.M.M.M.M.M.n.n.f.y.0.7.,.%.[ ' Q Q 4.p.6.6.6.6.i.6.e.p.p.e.d.d.6.a I.",
"I.e.8.w.r.r.t.u.u.u.k.l.n.m.m.B.t.e.e.w.0.i.0.a.f.g.h.c.n.M.M.Z.D.M.M.M.n.n.f.0.9.,.%.%.' Q E ! d.d.d.s.s.s.d.d.d.p.d.d.e.e.F I.",
"I.;.E E ( ( ( ( ( ;.;.<.<.4.i.b.a.i.i.9.9.0.0.a.g.g.h.c.N.M.A.D.F.F.D.M.M.n.h.y.7.,.,.%.[ ` H Q a.9.8.3.2.2.-.=.=.=.*.*.&.$.x I.",
"I.i.E S S S S S S S S S S E ! 4.z.i.9.9.9.9.a.a.f.g.c.N.M.Z.D.D.J.J.H.D.M.n.h.f.0.2.%.[ ' Q Q 2.&.T _ ` ` ` {  ... .%... ._ 0 I.",
"I.I.( S S S S S H E E ( ( o.;.;.s.i.4.4.4.0.0.a.g.g.h.c.M.Z.D.K.P.P.K.D.M.n.g.a.7.,.%.O.' ' [ ,.L T T _ ` ' ` {  ...%. . .x I.I.",
"I.I.4.S S E S E ( ( X.X.( o.] o.;.a.X.] ] >.,.4.9.0.g.c.n.V.A.K.J.P.H.D.M.h.h.a.9.,.>.[ ' ' 7.K L I I T _ ` ` ' '  . .{ _ 0 I.I.",
"I.I.I.;.E E ( ( ( ( ( ( X.X.o.o.X.4.i.Q ! [ %.,.2.9.a.g.c.N.C.D.G.G.F.Z.N.c.g.0.7.,.%.[ [ w.T j L T T T T T ` ` ' { _ _ x I.I.I.",
"I.I.I.4.( ( ( ( ( ( ( ( ( o.] o.o.X.4.5.' O.O.>.2.7.a.g.c.b.N.C.A.A.C.N.n.h.a.9.7.>.%.O.w.O.p Z L L L I I T T T I I B P 0 I.I.I.",
"I.I.I.I.( ( E ( E ( ( ( ( X.( ( O.X.o.5.4.O.O.>.4.7.0.a.h.x.b.b.N.N.b.c.g.g.a.7.2.&.O.9.*.h p K L L L L I I P M N N I i I.I.I.I.",
"I.I.I.I.;.( ( E ( ( ( ( ( ( o.( X.X.X.o.4.4.;.>.>.4.0.a.s.h.z.h.z.z.z.h.a.a.9.2.>.&.9.8.j d h Z K K K L K Z v z M M M 2 I.I.I.I.",
"I.I.I.I.I.;.( E W ! ! ( ( ( ( ( X.X.! E E <.4.>.<.4.7.a.a.g.j.a.g.a.a.a.0.9.2.>.&.w.9.K d d j v v v b z g u g z z b w I.I.I.I.I.",
"I.I.I.I.I.i.( ( ! ! ! ! ! ! ( ( ! ! H S S H <.4.>.2.4.i.i.a.g.w.9.9.0.9.4.2.>.>.0.w.L h d d j v j h u e u u u g z u - I.I.I.I.I.",
"I.I.I.I.I.I.@.( ! ! ! W ! ! ( ! E H S S S S E 4.4.>.4.9.9.i.a.4.2.4.4.>.>.>.&.r.r.L h h p h h p q q q e e e u u u 2 I.I.I.I.I.I.",
"I.I.I.I.I.I.I.( ! ! ! ( ! ! W H S S S S S S S ! w.4.<.4.4.9.5.4.>.>.>.;.O.+.a.8.L h h d p q 7 7 7 7 9 q q e e u 9 I.I.I.I.I.I.I.",
"I.I.I.I.I.I.I.4.^ W W W Q H S S S S S S S S ! X.+.w.q.<.4.4.4.>.O.O.O.O.O.s.7.K j h p 6 , , , 6 < 3 7 q q q e 9 $ I.I.I.I.I.I.I.",
"I.I.I.I.I.I.I.I.;.( W W S S S S S S S S S Q X.o.o.o.5.e.>.<.<.;.] ! ! >.g.&.K h 8 < & & & & , , , 3 3 7 7 q 9 - I.I.I.I.I.I.I.I.",
"I.I.I.I.I.I.I.I.I.o.W S S S S S S S S S W ! X.X.o.O.o.4.a.4.;.;.Q Q 4.s.` h 8 , & & & & , , , , , < 3 4 7 7 - I.I.I.I.I.I.I.I.I.",
"I.I.I.I.I.I.I.I.I.I.! S S S S S S S S W ! X.X.X.X.X.X.X.:.6.5.;.X.i.5.j 6 & % % & % % & & & & , , , < 3 7 - I.I.I.I.I.I.I.I.I.I.",
"I.I.I.I.I.I.I.I.I.I.;.! S S S S A S U ^ ] ^ } } } X.X.X.! U <.j.r.M & X X X X % % X & & & & & , ; , , , = + I.I.I.I.I.I.I.I.I.I.",
"I.I.I.I.I.I.I.I.I.I.I.;.E S S S S H W ! ! ^ ^ } ^ } X.X.! A L x.B . X X X X % % % & X & & & & & ; ; , = + I.I.I.I.I.I.I.I.I.I.I.",
"I.I.I.I.I.I.I.I.I.I.I.I.) E S S H W ! ! ! ! ^ } ^ } } } W A F d.M . X X % X X % % % & X & & & & & ; = O I.I.I.I.I.I.I.I.I.I.I.I.",
"I.I.I.I.I.I.I.I.I.I.I.I.I.~ E H W ! ! ! ! ^ ^ ! ^ } } } U A A e.m   X X X X X X X % X & & & & & & = + I.I.I.I.I.I.I.I.I.I.I.I.I.",
"I.I.I.I.I.I.I.I.I.I.I.I.I.I.( ~ ! ! ! ! ! ! ! ! ^ ^ ^ ^ P A A w.i . . X X X X X X X & X & & & & # + I.I.I.I.I.I.I.I.I.I.I.I.I.I.",
"I.I.I.I.I.I.I.I.I.I.I.I.I.I.I.~ ~ ~ W ! ! R ! ! ~ R ^ ^ H A C 5.i   . . . X X X % % % % o o % @ O I.I.I.I.I.I.I.I.I.I.I.I.I.I.I.",
"I.I.I.I.I.I.I.I.I.I.I.I.I.I.I.I.I.W ! ~ R W W ~ R ~ ! ! H A A -.u   . X X X X X X % % % % & @ I.I.I.I.I.I.I.I.I.I.I.I.I.I.I.I.I.",
"I.I.I.I.I.I.I.I.I.I.I.I.I.I.I.I.I.I.J R ~ W R ! ! R ! R A A A *.u   . . X X X X X X X % o @ I.I.I.I.I.I.I.I.I.I.I.I.I.I.I.I.I.I.",
"I.I.I.I.I.I.I.I.I.I.I.I.I.I.I.I.I.I.I.J Y W ! W Y ! R Y A A C ..5   . . . % . % X X o @ @ I.I.I.I.I.I.I.I.I.I.I.I.I.I.I.I.I.I.I.",
"I.I.I.I.I.I.I.I.I.I.I.I.I.I.I.I.I.I.I.I.I.J Y R ! ~ R U A A D } 5   . . . . . . X o @ I.I.I.I.I.I.I.I.I.I.I.I.I.I.I.I.I.I.I.I.I.",
"I.I.I.I.I.I.I.I.I.I.I.I.I.I.I.I.I.I.I.I.I.I.G J R Y ! U A A A R 5     . . . % % # $ I.I.I.I.I.I.I.I.I.I.I.I.I.I.I.I.I.I.I.I.I.I.",
"I.I.I.I.I.I.I.I.I.I.I.I.I.I.I.I.I.I.I.I.I.I.I.I.D J Y P A A A R :     . . . @ * I.I.I.I.I.I.I.I.I.I.I.I.I.I.I.I.I.I.I.I.I.I.I.I.",
"I.I.I.I.I.I.I.I.I.I.I.I.I.I.I.I.I.I.I.I.I.I.I.I.I.I.n D D A A U ;     X * - I.I.I.I.I.I.I.I.I.I.I.I.I.I.I.I.I.I.I.I.I.I.I.I.I.I.",
"I.I.I.I.I.I.I.I.I.I.I.I.I.I.I.I.I.I.I.I.I.I.I.I.I.I.I.I.a l A b * X - 1 I.I.I.I.I.I.I.I.I.I.I.I.I.I.I.I.I.I.I.I.I.I.I.I.I.I.I.I.",
"I.I.I.I.I.I.I.I.I.I.I.I.I.I.I.I.I.I.I.I.I.I.I.I.I.I.I.I.I.I.y y 2 2 I.I.I.I.I.I.I.I.I.I.I.I.I.I.I.I.I.I.I.I.I.I.I.I.I.I.I.I.I.I.",
"I.I.I.I.I.I.I.I.I.I.I.I.I.I.I.I.I.I.I.I.I.I.I.I.I.I.I.I.I.I.I.I.I.I.I.I.I.I.I.I.I.I.I.I.I.I.I.I.I.I.I.I.I.I.I.I.I.I.I.I.I.I.I.I."
};
