/* XPM */
static char *_3488_743fdb3b21d3ba859c7e173a6601037cda4573027f1d4d6969d41250f64bd6c6_1[] = {
/* columns rows colors chars-per-pixel */
"32 32 110 2 ",
"   c #330E39F1557A",
".  c #368C3D935A93",
"X  c #3ADB3E7E5D1D",
"o  c #41413D935E08",
"O  c #393940405E9E",
"+  c #3CD2439962A2",
"@  c #439942426161",
"#  c #434348486262",
"$  c #48484D4D6666",
"%  c #43684A6F69D7",
"&  c #49494ECF6DEE",
"*  c #4B4B51516CED",
"=  c #525257576F6F",
"-  c #46464E4E7070",
";  c #4E4E555573F4",
":  c #53A951FC7171",
">  c #52FD59AF751F",
",  c #53935C1C7C7C",
"<  c #63635E5E7D7D",
"1  c #5A5A60607D7D",
"2  c #575762628686",
"3  c #5BDC63E48303",
"4  c #5EDF68688A8A",
"5  c #630D676782D8",
"6  c #6B6B65658E8E",
"7  c #606069698A8A",
"8  c #6A6A68688D8D",
"9  c #707065658F8F",
"0  c #6C6C72728C8C",
"q  c #747479798E8E",
"w  c #676763E49494",
"e  c #69BF66669741",
"r  c #6DC36BC195EB",
"t  c #6D176A3799EF",
"y  c #70706F6F9595",
"u  c #715A6E3F9C10",
"i  c #79796C6C9999",
"p  c #6B4073F49313",
"a  c #747474749090",
"s  c #717178789696",
"d  c #78787C7C9494",
"f  c #752E72009DE4",
"g  c #7AFB74B49DDD",
"h  c #740D7C499999",
"j  c #7A7A7D7D9D1D",
"k  c #767673F4A1A1",
"l  c #7ABA7656A1E1",
"z  c #7D447A41A424",
"x  c #838378789F9F",
"c  c #81817575A222",
"v  c #81C87D19A617",
"b  c #81817F29A8FE",
"n  c #7AFB81C19D1D",
"m  c #77778181A424",
"M  c #7CFD8505A727",
"N  c #7EFF8707A8A8",
"B  c #7F7F8888A8A8",
"V  c #83038161A6E6",
"C  c #89898787A7A7",
"Z  c #85858A0AA3CE",
"A  c #8A128C9DA52D",
"S  c #84D2832AAA0E",
"D  c #89F0861FAB78",
"F  c #83EA8D5AAC12",
"G  c #8C418B55AE38",
"H  c #95958E8EADAD",
"J  c #8E389090A751",
"K  c #85DB90E6AD02",
"L  c #8C6C9252AC4C",
"P  c #91DA9494AB86",
"I  c #96969898ADAD",
"U  c #8D8D8B8BB0B0",
"Y  c #91518E4EB0F0",
"T  c #8E389506B1EA",
"R  c #8E8E9999B1B1",
"E  c #92E29363B322",
"W  c #99199696B5B5",
"Q  c #94699B7EB535",
"!  c #9AC99B6CB5B5",
"~  c #9E3E9DFDBA3A",
"^  c #A2A29F9FB8B8",
"/  c #9717A1A1B737",
"(  c #9B1BA0A0B636",
")  c #9BFBA343BA7A",
"_  c #9F1FA929BC3C",
"`  c #A3A3A5A5B7B7",
"'  c #A4EBA5B3BD84",
"]  c #A9A9A7A7BFBF",
"[  c #A4EBAB87BDA8",
"{  c #A989AD8DBDFD",
"}  c #ABF4B2D7BDBD",
"|  c #AACCADE0C28F",
" . c #A727B1F1C100",
".. c #AC24B2DFC31D",
"X. c #AFAFB9B9C5C5",
"o. c #B308B70CC4EF",
"O. c #B49FBA8FC69B",
"+. c #B98EBD67C7C7",
"@. c #B590BC4EC980",
"#. c #BA4CBE1FC9FA",
"$. c #BD2EC318CC21",
"%. c #C1C1C6C6D0D0",
"&. c #C491CA63D29F",
"*. c #CECECFCFD8D8",
"=. c #CDCDD3D3D7D7",
"-. c #CDCDD2D2D8D8",
";. c #D2D2D4D4DB5B",
":. c #D4D4D8D8DCDC",
">. c #DEDEDDDDE1E1",
",. c None",
/* pixels */
",.,.,.,.,.,.,.,.,.,.,.,.,.,.,.,.,.,.,.,.,.,.,.,.,.,.,.,.,.,.,.,.",
",.,.,.,.,.,.,.,.,.,.,.,.,.! J J ] ] ] ,.,.,.,.,.,.,.,.,.,.,.,.,.",
",.,.,.,.,.,.,.,.,.,.,.^ P Z A A ^ ' ] Y D ,.,.,.,.,.,.,.,.,.,.,.",
",.,.,.,.,.,.,.,.,.,.` A Z A A A E Y W D e c ,.,.,.,.,.,.,.,.,.,.",
",.,.,.,.,.,.,.,.,.{ ` J A A A A H b D S w w u ,.,.,.,.,.,.,.,.,.",
",.,.,.,.,.,.,.| { ` ` I A L A G D z v v t e e u v ,.,.,.,.,.,.,.",
",.,.,.,.,.,.O.o.{ ` [ ` J L A L S k k z u e u u f c ,.,.,.,.,.,.",
",.,.,.,.,.o.+.$.} { ` ` P P F | ~ u u g u u u u f z c ,.,.,.,.,.",
",.,.,.,.,.+.#.$.+.{ { { Q ~ ..| | ~ z k f f k k z z c ,.,.,.,.,.",
",.,.,.,.O.+.#.$.+.o.{ { | @.| | ) ~ ) S l l z z v v D b ,.,.,.,.",
",.,.,.O.O.+.+.$.#.+.} +.@..._ _ ~ R T W U z b b S D D D v ,.,.,.",
",.,.o.o.O.+.+.+.+.+.$.#. . ._ _ / Q T F T U D D D G G G H c ,.,.",
",.,.{ } } } +.+.#.$.@.| | _ _ _ _ / Q K B T T U U U U U E D ,.,.",
",.| } [ } } } } +.$.| |  . . .X. . ./ R K B T E Y Y Y W W W c ,.",
",.[ [ [ [ { } } +.| | )  . .X.$.$.X. ._ R B M W ^ W ^ ^ ^ | H ,.",
",.) ` [ { } ..+.o.| ~ | | X.$.$.$.$.X. .Q K z b ] ] ] ^ | | ` ,.",
",.k k z z z U ~ | ) _ _ ..@.$.*.:.=.$.X./ K m M L L J P L L Z ,.",
",.b t k z z z U ~ E T ) | @.$.>.>.:.$. ./ F M Z h h n M Z A a ,.",
",.E z z z U S U U E N T Q | #.&.-.&.$._ Q K F p p s h h n d < ,.",
",.,.U z z z b S N U T T Q _ o.@.@.@. ./ L Q p 4 p p p 0 0 5 ,.,.",
",.,.E z z z z z z k z E Q ) | | | _ ) R Q n 2 4 7 3 5 5 5 : ,.,.",
",.,.,.U z z z z k t t z Q W ) ) T T T / n 2 2 , > > , , : ,.,.,.",
",.,.,.,.z z k t t t k z T ~ W T N U Q k 2 - % % & ; > : ,.,.,.,.",
",.,.,.,.,.k t t t k z S S G W E U F 2 + + . + % % & * ,.,.,.,.,.",
",.,.,.,.,.b k t t l v V V S j W q + . . . + + @ % % @ ,.,.,.,.,.",
",.,.,.,.,.,.k k g z z v V V i C > . . . . + + + + o ,.,.,.,.,.,.",
",.,.,.,.,.,.,.z z z z z z v u v =   . . O + + + o ,.,.,.,.,.,.,.",
",.,.,.,.,.,.,.,.,.c j z j j r j *   . . . . X ,.,.,.,.,.,.,.,.,.",
",.,.,.,.,.,.,.,.,.,.g g j g r g $     . X X ,.,.,.,.,.,.,.,.,.,.",
",.,.,.,.,.,.,.,.,.,.,.i g f r y #     X o ,.,.,.,.,.,.,.,.,.,.,.",
",.,.,.,.,.,.,.,.,.,.,.,.,.9 6 8 # X @ ,.,.,.,.,.,.,.,.,.,.,.,.,.",
",.,.,.,.,.,.,.,.,.,.,.,.,.,.,.,.,.,.,.,.,.,.,.,.,.,.,.,.,.,.,.,."
};
