/* XPM */
static char *_3488_743fdb3b21d3ba859c7e173a6601037cda4573027f1d4d6969d41250f64bd6c6_2[] = {
/* columns rows colors chars-per-pixel */
"48 48 132 2 ",
"   c #32E239A5553A",
".  c #36993DAA5AA9",
"X  c #3A873E715D43",
"o  c #41413CD65D90",
"O  c #42423F3F6060",
"+  c #393940545EAD",
"@  c #3CA1439162BB",
"#  c #42B043B1631A",
"$  c #48F34141640E",
"%  c #4298494966BC",
"&  c #494948486767",
"*  c #441C4B5F6AA5",
"=  c #48F34F4F6E6E",
"-  c #53534B4B6D6D",
";  c #4A4A50506B6B",
":  c #505054546C6C",
">  c #474750507171",
",  c #4D33546E7272",
"<  c #51D252527171",
"1  c #525258AE741E",
"2  c #58585E5E7474",
"3  c #538C5C067B25",
"4  c #5ADB5BDC79FA",
"5  c #5D5D62627777",
"6  c #5ADB60E17DFE",
"7  c #616164E57D7D",
"8  c #67675D5D8585",
"9  c #62625E5E9191",
"0  c #569661A18585",
"q  c #5C5C64648343",
"w  c #5BB1666688DE",
"e  c #5E5E68688A8A",
"r  c #671161B7832D",
"t  c #64976B0484EB",
"y  c #6F6F65658F8F",
"u  c #62876C6C8D8D",
"i  c #68686F6F8B8B",
"p  c #727263638F8F",
"a  c #6D17721C8B8B",
"s  c #666662FC9461",
"d  c #69EA66669636",
"f  c #6CA76A6A956D",
"g  c #6B6B67679898",
"h  c #6D3F6A649A61",
"j  c #777767679494",
"k  c #70706F6F9494",
"l  c #78786D6D9797",
"z  c #71716E189C53",
"x  c #7BFC6E6E9C1C",
"c  c #66E770709090",
"v  c #6CB97542942D",
"b  c #707077779696",
"n  c #72D979AC94FB",
"m  c #797979799595",
"M  c #7527725B9E29",
"N  c #7AE8742B9D9D",
"B  c #74747C1C9979",
"V  c #78F97DFE9B5B",
"C  c #76BF7474A133",
"Z  c #79FA7656A1F7",
"A  c #74347C7CA262",
"S  c #7D5F7A31A3E9",
"D  c #808075759999",
"F  c #80AB749FA1F7",
"G  c #81BC7D84A5CA",
"H  c #81DE7EDBA8BF",
"J  c #7BDB82A29D7D",
"K  c #7B5383E6A52E",
"L  c #7F7F85DBA8FE",
"P  c #7F7F8A8AA9A9",
"I  c #848486869E9E",
"U  c #82FB830AA60F",
"Y  c #86268A5AA363",
"T  c #8A778C5CA4D4",
"R  c #84F78369AA37",
"E  c #89F485F0ABC0",
"W  c #84048C7FABF8",
"Q  c #8CC18B10AE68",
"!  c #93938D8DAFAF",
"~  c #8ECE9090A7A7",
"^  c #87879191AE2E",
"/  c #8CC3934AACAC",
"(  c #91919393A7A7",
")  c #92CB95CEACAC",
"_  c #943E9943AFAF",
"`  c #98989A9AAFAF",
"'  c #8D0D8D4DB171",
"]  c #91918EA2B162",
"[  c #8D1294C1B120",
"{  c #8EE49943B25C",
"}  c #949F947FB3E9",
"|  c #99E296BBB5FE",
" . c #94B19B68B582",
".. c #9B129B8AB4F9",
"X. c #9C919D65B9A3",
"o. c #A1079F05BB54",
"O. c #96D6A1E1B6F6",
"+. c #9C9CA222B6B6",
"@. c #9D74A441BB15",
"#. c #9E48A953BBBB",
"$. c #A121A323B636",
"%. c #A3A9A53DBC4E",
"&. c #A8A8A6A6BFBF",
"*. c #A4B7ABA7BD3D",
"=. c #A9E3AD67BDEC",
"-. c #A54FB0B0BFBF",
";. c #AB5BB292BD9D",
":. c #A9A9A7A7C1C1",
">. c #A610AC56C0EB",
",. c #AABFACB3C273",
"<. c #A6D1B131C0C0",
"1. c #ACA4B3EDC389",
"2. c #AF2FB9F9C5C5",
"3. c #B27CB621C523",
"4. c #B4D6BAC5C68E",
"5. c #B939BD92C79C",
"6. c #B41AB64FC92F",
"7. c #B57EBB5FC9DB",
"8. c #BA55BE54C94E",
"9. c #B6B6C0C0C9C9",
"0. c #BC48C28FCBF2",
"q. c #BFBFC8C8CFCF",
"w. c #C141C484CF0E",
"e. c #C0C0C9C9CFCF",
"r. c #C3C3C62CD252",
"t. c #C59ACCA1D328",
"y. c #CB20CE23D680",
"u. c #CB4BD252D6D6",
"i. c #CFCFD3D3D9D9",
"p. c #D2A7D555DB30",
"a. c #DD5DDD9DE161",
"s. c None",
/* pixels */
"s.s.s.s.s.s.s.s.s.s.s.s.s.s.s.s.s.s.s.s.s.s.s.s.s.s.s.s.s.s.s.s.s.s.s.s.s.s.s.s.s.s.s.s.s.s.s.s.",
"s.s.s.s.s.s.s.s.s.s.s.s.s.s.s.s.s.s.s.s.s.s...` &.:.s.s.s.s.s.s.s.s.s.s.s.s.s.s.s.s.s.s.s.s.s.s.",
"s.s.s.s.s.s.s.s.s.s.s.s.s.s.s.s.s.s.s.&.| T Y T %.,.&.&.&.s.s.s.s.s.s.s.s.s.s.s.s.s.s.s.s.s.s.s.",
"s.s.s.s.s.s.s.s.s.s.s.s.s.s.s.s.s.s...( Y T T T o.%.&.,.&.! s.s.s.s.s.s.s.s.s.s.s.s.s.s.s.s.s.s.",
"s.s.s.s.s.s.s.s.s.s.s.s.s.s.s.s.$.( T I T T T Y ..| ..o.o.Z z E s.s.s.s.s.s.s.s.s.s.s.s.s.s.s.s.",
"s.s.s.s.s.s.s.s.s.s.s.s.s.s.s.=.) I I I T T T T } ! ] } | G 9 d G s.s.s.s.s.s.s.s.s.s.s.s.s.s.s.",
"s.s.s.s.s.s.s.s.s.s.s.s.s.3.=.$...I T T T T I T ] E E Q ! H 9 s s N Q s.s.s.s.s.s.s.s.s.s.s.s.s.",
"s.s.s.s.s.s.s.s.s.s.s.s.=.&.$.=.$.T T T ( ( Y ( ] G G G E G g s 9 d z H s.s.s.s.s.s.s.s.s.s.s.s.",
"s.s.s.s.s.s.s.s.s.s.s.=.=.$.=.$.*.~ T ~ ~ ~ J ) Q Z Z G G G h s g g g z G s.s.s.s.s.s.s.s.s.s.s.",
"s.s.s.s.s.s.s.s.s.s.4.3.$.=.$.=.*.` ~ ~ ~ ~ Y  .Q M C Z Z S z g f h h h z F s.s.s.s.s.s.s.s.s.s.",
"s.s.s.s.s.s.s.s.s.4.8.8.=.$.=.$.=.$.~ ~ ) ~ L X.] z M C M Z M h h h h z M M G s.s.s.s.s.s.s.s.s.",
"s.s.s.s.s.s.s.s.3.5.0.w.5.=.$.=.=.$.) ) _ W } 7.6.H z M M C M z z z M M M N C F s.s.s.s.s.s.s.s.",
"s.s.s.s.s.s.s.3.8.8.;.w.w.;.=.=.=.=.` ) | >.7.1.,.6.' C M M C z z C C Z Z Z G F F s.s.s.s.s.s.s.",
"s.s.s.s.s.s.3.4.8.8.w.5.w.5.=.;.=.=.$...6.8.,.:.@.%.,.| Z C Z Z Z C Z Z S S G G H D s.s.s.s.s.s.",
"s.s.s.s.s.s.4.8.8.5.0.0.5.w.;.;.=.;.;.0.7.>.>.#.@.X. .:.X.H Z Z S S S G G G H E H G s.s.s.s.s.s.",
"s.s.s.s.s.3.5.8.8.8.5.5.5.5.8.;.=.6.r.6.>.:.#.@.X. . .[  .%.E S G G G H H R H E ! ! H s.s.s.s.s.",
"s.s.s.s.3.5.5.5.8.7.8.8.q.7.7.6.5.r.6.,.>.>.#.O.O. .{ [ ^ [ @.' U U R H E E E Q Q Q Q F s.s.s.s.",
"s.s.s.s.;.;.4.5.7.8.8.8.7.9.7.r.r.6.,.:.#.#.#.O.O.O.{ { ^ P W } ' E E Q E ' Q Q Q Q ! H s.s.s.s.",
"s.s.s.=.;.;.;.;.3.4.8.8.7.8.r.r.6.<.>.*.#.-.#.#.#.#.O.{ [ ^ L L | ] Q ' ' Q Q Q ! ] | ! F s.s.s.",
"s.s.1.=.*.=.;.;.;.;.3.7.7.8.r.6.,.>.#.>.-.-.-.-.<.#.#.O.{ ^ W L R X.] ' Q Q ] ] ] | ! o.! j s.s.",
"s.s.,.*.=.;.*.*.;.;.;.;.6.r.6.>.>.>.>.<.<.<.<.2.2.<.-.#.O.{ [ ^ K W O.] ] ] } } | | o.o.o.D s.s.",
"s.s.*.*.*.*.;.;.;.;.;.;.7.6.>.>.#.-.<.<.2.2.9.2.2.2.<.-.#.O.{ ^ P K [ o.| | | | | o.o.%.&.| s.s.",
"s.=.*.*.*.*.*.;.*.;.;.;.6.6.>.>.#.>.<.1.2.9.9.q.q.9.9.2.<.#.O.^ P L A | o.o.X.o.o.&.&.&.:.,.D s.",
"s.@.@.$.*.=.;.;.3.4.0.r.6.>.@.@.>.>.<.1.7.9.q.u.u.q.q.9.2.#.O.{ W L A U ,.,.,.,.:.:.:.:.:.,.~ s.",
"s.E C S S S E ' ' ' ' 6.:.:.@.@.#.>.1.2.7.q.r.y.p.i.u.q.2.<.O.{ ^ K A K @._ ) _ { ) _ / ~ ) m s.",
"s.' h h h h h h C C H ' 6.o.@.@.#.>.<.6.7.q.y.a.a.a.i.q.7.<.O.{ P K A [ J B V K J Y Y Y T T r s.",
"s.s.Z h C S Z S R R R ' X.X.L ' { X.@.1.7.q.y.p.a.a.i.q.1.-.O.{ W K / K v B B V J K Y Y Y m s.s.",
"s.s.Q C S S R S H R R R R X.' A P [  .@.1.7.q.y.p.p.t.0.1.-.O.^ W [ Y e v B b B J J J J J r s.s.",
"s.s.| ' S S S H ' S R ' L ' X.' W [  .#.>.6.0.q.r.r.8.7.<.#.{ ^ [  .e u v v v b n B n n a - s.s.",
"s.s.s.' S S S H S R R S R S '  .[ ' { @.:.6.6.7.6.7.6.,.#.X.[ { O.c 0 u c c v v i t a a 4 s.s.s.",
"s.s.s.s.H C S H S R S R H S C C  .} }  .@.>.1.,.,.>.>.@. .[  .@.v 0 q u u u t q 6 t t 7 s.s.s.s.",
"s.s.s.s.' H S C S S S S S C h h C }  . .@.:.>.#.X.O. . .[  .%.B w 0 w q q 3 2 6 6 6 7 - s.s.s.s.",
"s.s.s.s.s.' S S S S S C h h h h h U @. . .| @. .} ' ' ^  .@.B w 0 0 3 , , , 1 3 3 6 < s.s.s.s.s.",
"s.s.s.s.s.s.H S S C h h h h h h M U ] %.|  . . .W R P X.@.v w 3 > @ @ > = , , 1 3 < s.s.s.s.s.s.",
"s.s.s.s.s.s.' H C h h h h h h C Y R R Q @.X.] ' A L @.[ u 3 * @ @ @ * * = = , , , $ s.s.s.s.s.s.",
"s.s.s.s.s.s.s.H h h h h h h z S R R R R Q  .X.] ' X.B 3 @ @ @ + @ @ @ * * * = ; $ s.s.s.s.s.s.s.",
"s.s.s.s.s.s.s.s.F h h h h z S S G U U R E N G =.( , + . + + + @ @ @ @ @ * * * # s.s.s.s.s.s.s.s.",
"s.s.s.s.s.s.s.s.s.Z h h h Z S S G G G U U N f o.t   . . . . + + @ @ @ @ @ @ # s.s.s.s.s.s.s.s.s.",
"s.s.s.s.s.s.s.s.s.s.Z z S S S S G G S U U M f | 7   . . + . + + @ @ @ @ @ # s.s.s.s.s.s.s.s.s.s.",
"s.s.s.s.s.s.s.s.s.s.s.S S S S S S G V U S M f ) 5     . . . . + @ + @ @ # s.s.s.s.s.s.s.s.s.s.s.",
"s.s.s.s.s.s.s.s.s.s.s.s.F S S S S V G G G b f Q 2     . . . . X + X + o s.s.s.s.s.s.s.s.s.s.s.s.",
"s.s.s.s.s.s.s.s.s.s.s.s.s.F Z S S N S N N f f Y 1     . . . . . X X o s.s.s.s.s.s.s.s.s.s.s.s.s.",
"s.s.s.s.s.s.s.s.s.s.s.s.s.s.s.x N S S S N f f G ;       . . . X o s.s.s.s.s.s.s.s.s.s.s.s.s.s.s.",
"s.s.s.s.s.s.s.s.s.s.s.s.s.s.s.s.x N N V N f f V ;         . o O s.s.s.s.s.s.s.s.s.s.s.s.s.s.s.s.",
"s.s.s.s.s.s.s.s.s.s.s.s.s.s.s.s.s.s.l N N f f N &       X O s.s.s.s.s.s.s.s.s.s.s.s.s.s.s.s.s.s.",
"s.s.s.s.s.s.s.s.s.s.s.s.s.s.s.s.s.s.s.p y y f k #   + o $ s.s.s.s.s.s.s.s.s.s.s.s.s.s.s.s.s.s.s.",
"s.s.s.s.s.s.s.s.s.s.s.s.s.s.s.s.s.s.s.s.s.s.8 r & & s.s.s.s.s.s.s.s.s.s.s.s.s.s.s.s.s.s.s.s.s.s.",
"s.s.s.s.s.s.s.s.s.s.s.s.s.s.s.s.s.s.s.s.s.s.s.s.s.s.s.s.s.s.s.s.s.s.s.s.s.s.s.s.s.s.s.s.s.s.s.s."
};
